<svg width="132" height="38" viewBox="0 0 132 38" fill="none" xmlns="http://www.w3.org/2000/svg">
<path fill-rule="evenodd" clip-rule="evenodd" d="M91.24 27.8443C89.26 29.9544 86.717 31.0261 83.683 31.0261C80.648 31.0261 78.106 29.9544 76.127 27.8443C74.237 25.8344 73.151 22.6205 73.151 19.0298C73.151 15.525 74.249 12.3551 76.159 10.3309C78.158 8.2209 80.689 7.1444 83.681 7.136C86.677 7.1444 89.208 8.2209 91.206 10.3309C93.119 12.3551 94.214 15.525 94.214 19.0298C94.214 22.6205 93.13 25.8344 91.24 27.8443ZM64.672 19.0298C64.672 19.1919 64.679 19.3517 64.684 19.5114C61.648 16.766 57.258 15.7443 54.576 15.2114C49.614 14.1719 45.823 13.2206 45.823 9.711C45.823 7.235 48.055 5.4337 52.343 5.7424C56.261 6.025 57.911 8.4044 58.363 10.7005C58.428 11.0772 58.603 11.3514 59.035 11.3549L66.082 11.4145C66.115 11.4145 66.144 11.411 66.174 11.4086C65.18 13.7106 64.672 16.2736 64.672 19.0298ZM52.687 31.9071C49.279 31.9071 45.524 30.7042 44.659 26.0502C44.586 25.6055 44.375 25.4219 44.032 25.4124L37.2192 25.3218V13.3589C38.1144 16.8649 41.08 19.2921 47.492 20.7262C51.785 21.7466 59.231 22.3952 59.231 26.7726C59.231 29.8244 56.969 31.9786 52.687 31.9071ZM18.756 31.0309C13.26 31.0309 8.2248 26.7333 8.2248 19.0346C8.2248 12.9941 12 7.1408 18.792 7.1408C21.7344 7.1408 29.1948 8.1422 29.1948 19.0346C29.1948 29.9556 21.4056 31.0309 18.7548 31.0309H18.756ZM102.491 16.096C104.054 18.1679 106.877 19.7022 111.462 20.7274C115.753 21.7478 123.2 22.3963 123.2 26.7738C123.2 29.8256 120.937 31.9798 116.657 31.9083C113.25 31.9083 109.493 30.7054 108.629 26.0514C108.557 25.6067 108.346 25.4231 108.001 25.4136L101.689 25.3302C102.355 23.3787 102.695 21.265 102.695 19.031C102.694 18.0492 102.626 17.0685 102.491 16.096ZM116.191 38C123.75 38 132.659 35.2045 131.962 26.1372C131.191 18.088 122.76 16.0495 118.546 15.2126C113.582 14.1731 109.792 13.2218 109.792 9.7122C109.792 7.2362 112.024 5.4349 116.312 5.7436C120.23 6.0262 121.88 8.4056 122.333 10.7017C122.398 11.0784 122.574 11.3526 123.005 11.3561L130.051 11.4157C130.588 11.4193 130.754 11.1427 130.687 10.7636C129.307 2.3735 122.251 0 115.758 0C109.274 0 101.462 1.8096 100.908 9.8219C100.889 10.1318 100.882 10.437 100.882 10.7362C99.85 8.6047 98.362 6.6473 96.444 4.9139C92.904 1.7429 88.49 0.0440994 83.677 0.00239944H83.518C81.218 0.00239944 78.968 0.4232 76.829 1.2577C74.654 2.1123 72.653 3.351 70.922 4.9139C69.107 6.5543 67.673 8.3949 66.648 10.3941C65.122 2.3079 58.183 0 51.787 0C45.835 0 38.7624 1.5295 37.2192 7.9872V1.5772C37.2189 1.413 37.153 1.2556 37.036 1.1396C36.919 1.0236 36.7605 0.9585 36.5952 0.9585H29.9592C29.7939 0.9588 29.6355 1.0242 29.5187 1.1405C29.402 1.2567 29.3364 1.4142 29.3364 1.5784V3.3069C29.3364 3.5978 29.1408 3.6991 28.902 3.5299C26.5416 1.8287 23.0496 0.00359917 18.8472 0.00359917C16.4856 0.00359917 14.2308 0.415999 12.144 1.2291C10.056 2.0445 8.0712 3.2855 6.2496 4.9187C4.176 6.7927 2.5968 8.929 1.5612 11.2679C0.525599 13.6069 0 16.22 0 19.0334C0 21.6596 0.4656 24.1225 1.3824 26.3482C2.2992 28.5739 3.6948 30.6327 5.532 32.4686C7.368 34.3044 9.4224 35.6992 11.634 36.6171C13.8456 37.5315 16.2828 37.9952 18.882 37.9952C23.3484 37.9952 26.7 36.1057 28.896 34.3879C29.1384 34.2043 29.3364 34.3032 29.3364 34.6037V36.4192C29.3364 36.7602 29.6172 37.0392 29.9604 37.0392H36.5964C36.7616 37.0385 36.9198 36.973 37.0365 36.8568C37.1532 36.7407 37.2189 36.5834 37.2192 36.4192V30.3037C40.348 37.6114 48.319 37.9988 52.222 37.9988C58.745 37.9988 66.268 35.9126 67.76 29.5133C68.478 30.5724 69.297 31.5605 70.205 32.4638C73.762 36.0199 78.422 37.9321 83.689 37.9893H83.905C86.406 37.9893 88.819 37.5124 91.078 36.5695C93.358 35.6117 95.425 34.2165 97.162 32.4638C98.461 31.1773 99.57 29.7148 100.457 28.1197C102.822 37.541 111.932 37.9988 116.191 37.9988V38Z" fill="white"/>
</svg>
