<svg width="88" height="28" viewBox="0 0 88 28" fill="none" xmlns="http://www.w3.org/2000/svg">
<path fill-rule="evenodd" clip-rule="evenodd" d="M14.443 5.6233H22.774V0.4266H0V5.6233H8.2921V27.5735H14.443V5.6233ZM49.314 27.5735H55.465V0.4266H49.314V11.7507H36.973V0.4266H30.822V27.5735H36.973V16.8699H49.314V27.5735ZM84.535 8.4155L88 4.0332C86.599 2.7923 84.931 1.8099 82.997 1.0858C81.064 0.3624 79.085 0 77.061 0C74.284 0 71.76 0.6077 69.489 1.8227C67.218 3.0383 65.434 4.7119 64.136 6.8449C62.838 8.9779 62.19 11.3502 62.19 13.9613C62.19 16.5984 62.826 18.9834 64.097 21.1164C65.369 23.2494 67.108 24.9304 69.314 26.158C71.519 27.3864 73.985 28 76.711 28C78.579 28 80.526 27.6704 82.55 27.0112C84.575 26.3519 86.313 25.4927 87.767 24.4322V13.8837H82.433V21.1359C81.551 21.6012 80.642 21.9697 79.708 22.2411C78.774 22.5126 77.904 22.6483 77.1 22.6483C75.516 22.6483 74.069 22.2671 72.759 21.5042C71.448 20.742 70.41 19.6949 69.645 18.363C68.879 17.0317 68.496 15.5647 68.496 13.9613C68.496 12.3586 68.873 10.9042 69.625 9.5984C70.378 8.2932 71.41 7.2587 72.721 6.4959C74.03 5.7336 75.478 5.3518 77.061 5.3518C78.385 5.3518 79.708 5.6233 81.032 6.1662C82.355 6.7092 83.524 7.4593 84.535 8.4155Z" fill="white"/>
</svg>
